<svg width="800" height="800" viewBox="0 0 800 800" xmlns="http://www.w3.org/2000/svg">
  <!-- Fondo del producto -->
  <rect width="800" height="800" fill="#f5f5f5" />
  
  <!-- Silueta de la blusa -->
  <path d="M400 150 L250 200 L200 350 L200 600 L600 600 L600 350 L550 200 Z" fill="#ffffff" stroke="#e0e0e0" stroke-width="10" />
  
  <!-- Cuello de la blusa -->
  <path d="M350 150 L400 200 L450 150" fill="none" stroke="#e0e0e0" stroke-width="8" />
  
  <!-- Mangas -->
  <path d="M250 200 L150 300" fill="none" stroke="#e0e0e0" stroke-width="10" />
  <path d="M550 200 L650 300" fill="none" stroke="#e0e0e0" stroke-width="10" />
  
  <!-- Detalles bordados -->
  <!-- Flores bordadas -->
  <circle cx="300" cy="300" r="15" fill="none" stroke="#bdbdbd" stroke-width="2" />
  <circle cx="300" cy="300" r="8" fill="none" stroke="#bdbdbd" stroke-width="2" />
  <circle cx="300" cy="300" r="3" fill="#bdbdbd" />
  
  <circle cx="500" cy="300" r="15" fill="none" stroke="#bdbdbd" stroke-width="2" />
  <circle cx="500" cy="300" r="8" fill="none" stroke="#bdbdbd" stroke-width="2" />
  <circle cx="500" cy="300" r="3" fill="#bdbdbd" />
  
  <circle cx="400" cy="350" r="15" fill="none" stroke="#bdbdbd" stroke-width="2" />
  <circle cx="400" cy="350" r="8" fill="none" stroke="#bdbdbd" stroke-width="2" />
  <circle cx="400" cy="350" r="3" fill="#bdbdbd" />
  
  <!-- Patrón bordado en el pecho -->
  <path d="M350 250 C 375 230, 425 230, 450 250" fill="none" stroke="#bdbdbd" stroke-width="2" />
  <path d="M360 270 C 380 250, 420 250, 440 270" fill="none" stroke="#bdbdbd" stroke-width="2" />
  
  <!-- Botones -->
  <circle cx="400" cy="280" r="5" fill="#e0e0e0" />
  <circle cx="400" cy="320" r="5" fill="#e0e0e0" />
  <circle cx="400" cy="360" r="5" fill="#e0e0e0" />
  <circle cx="400" cy="400" r="5" fill="#e0e0e0" />
  <circle cx="400" cy="440" r="5" fill="#e0e0e0" />
  
  <!-- Textura sutil -->
  <pattern id="dots" patternUnits="userSpaceOnUse" width="20" height="20">
    <circle cx="10" cy="10" r="1" fill="#f5f5f5" />
  </pattern>
  <rect x="200" y="150" width="400" height="450" fill="url(#dots)" />
</svg>