<svg width="800" height="800" viewBox="0 0 800 800" xmlns="http://www.w3.org/2000/svg">
  <!-- Fondo del producto -->
  <rect width="800" height="800" fill="#f5f5f5" />
  
  <!-- Silueta del bolso -->
  <path d="M250 300 L550 300 L600 600 L200 600 Z" fill="#795548" stroke="#5d4037" stroke-width="10" />
  
  <!-- Correa del bolso -->
  <path d="M250 300 L150 150 L100 200 L200 350" fill="#795548" stroke="#5d4037" stroke-width="8" />
  <path d="M550 300 L650 150 L700 200 L600 350" fill="#795548" stroke="#5d4037" stroke-width="8" />
  
  <!-- Solapa del bolso -->
  <path d="M300 300 L500 300 L450 400 L350 400 Z" fill="#8d6e63" stroke="#5d4037" stroke-width="5" />
  
  <!-- Hebilla -->
  <rect x="390" y="350" width="20" height="30" rx="5" fill="#d7ccc8" stroke="#a1887f" stroke-width="2" />
  
  <!-- Detalles del bolso -->
  <!-- Costuras -->
  <line x1="250" y1="350" x2="550" y2="350" stroke="#a1887f" stroke-width="2" stroke-dasharray="5,5" />
  <line x1="250" y1="400" x2="550" y2="400" stroke="#a1887f" stroke-width="2" stroke-dasharray="5,5" />
  <line x1="250" y1="450" x2="550" y2="450" stroke="#a1887f" stroke-width="2" stroke-dasharray="5,5" />
  <line x1="250" y1="500" x2="550" y2="500" stroke="#a1887f" stroke-width="2" stroke-dasharray="5,5" />
  <line x1="250" y1="550" x2="550" y2="550" stroke="#a1887f" stroke-width="2" stroke-dasharray="5,5" />
  
  <!-- Bolsillo exterior -->
  <rect x="350" y="450" width="100" height="80" rx="10" fill="#8d6e63" stroke="#5d4037" stroke-width="3" />
  
  <!-- Textura de cuero -->
  <pattern id="leather" patternUnits="userSpaceOnUse" width="20" height="20">
    <rect width="20" height="20" fill="#795548" />
    <circle cx="10" cy="10" r="8" fill="#8d6e63" fill-opacity="0.2" />
  </pattern>
  <path d="M250 300 L550 300 L600 600 L200 600 Z" fill="url(#leather)" />
  
  <!-- Brillo -->
  <ellipse cx="400" cy="400" rx="100" ry="50" fill="#ffffff" fill-opacity="0.1" />
</svg>