<svg width="800" height="800" viewBox="0 0 800 800" xmlns="http://www.w3.org/2000/svg">
  <!-- Fondo del producto -->
  <rect width="800" height="800" fill="#fce4ec" />
  
  <!-- Silueta de la falda -->
  <path d="M250 200 L550 200 L600 700 L200 700 Z" fill="#f8bbd0" stroke="#f48fb1" stroke-width="10" />
  
  <!-- Cintura de la falda -->
  <rect x="250" y="200" width="300" height="30" fill="#f48fb1" />
  
  <!-- Pliegues de la falda -->
  <line x1="275" y1="230" x2="225" y2="700" stroke="#f48fb1" stroke-width="2" />
  <line x1="300" y1="230" x2="250" y2="700" stroke="#f48fb1" stroke-width="2" />
  <line x1="325" y1="230" x2="275" y2="700" stroke="#f48fb1" stroke-width="2" />
  <line x1="350" y1="230" x2="300" y2="700" stroke="#f48fb1" stroke-width="2" />
  <line x1="375" y1="230" x2="325" y2="700" stroke="#f48fb1" stroke-width="2" />
  <line x1="400" y1="230" x2="350" y2="700" stroke="#f48fb1" stroke-width="2" />
  <line x1="425" y1="230" x2="375" y2="700" stroke="#f48fb1" stroke-width="2" />
  <line x1="450" y1="230" x2="400" y2="700" stroke="#f48fb1" stroke-width="2" />
  <line x1="475" y1="230" x2="425" y2="700" stroke="#f48fb1" stroke-width="2" />
  <line x1="500" y1="230" x2="450" y2="700" stroke="#f48fb1" stroke-width="2" />
  <line x1="525" y1="230" x2="475" y2="700" stroke="#f48fb1" stroke-width="2" />
  <line x1="550" y1="230" x2="500" y2="700" stroke="#f48fb1" stroke-width="2" />
  <line x1="575" y1="230" x2="525" y2="700" stroke="#f48fb1" stroke-width="2" />
  
  <!-- Botón -->
  <circle cx="400" cy="215" r="8" fill="#ec407a" />
  
  <!-- Sombras para dar volumen -->
  <path d="M250 200 L275 230 L225 700 L200 700 Z" fill="#f48fb1" fill-opacity="0.3" />
  <path d="M550 200 L525 230 L575 700 L600 700 Z" fill="#f48fb1" fill-opacity="0.3" />
</svg>