<svg width="800" height="800" viewBox="0 0 800 800" xmlns="http://www.w3.org/2000/svg">
  <!-- Fondo del producto -->
  <rect width="800" height="800" fill="#f5f5f5" />
  
  <!-- Correa del reloj -->
  <path d="M300 150 L500 150 L550 300 L550 500 L500 650 L300 650 L250 500 L250 300 Z" fill="#795548" stroke="#5d4037" stroke-width="10" />
  
  <!-- Caja del reloj -->
  <circle cx="400" cy="400" r="150" fill="#f5f5f5" stroke="#bdbdbd" stroke-width="10" />
  
  <!-- Esfera del reloj -->
  <circle cx="400" cy="400" r="130" fill="#ffffff" stroke="#e0e0e0" stroke-width="5" />
  
  <!-- Marcadores de hora -->
  <line x1="400" y1="280" x2="400" y2="300" stroke="#212121" stroke-width="3" />
  <line x1="520" y1="400" x2="500" y2="400" stroke="#212121" stroke-width="3" />
  <line x1="400" y1="520" x2="400" y2="500" stroke="#212121" stroke-width="3" />
  <line x1="280" y1="400" x2="300" y2="400" stroke="#212121" stroke-width="3" />
  
  <line x1="460" y1="290" x2="450" y2="310" stroke="#212121" stroke-width="2" />
  <line x1="510" y1="340" x2="490" y2="350" stroke="#212121" stroke-width="2" />
  <line x1="510" y1="460" x2="490" y2="450" stroke="#212121" stroke-width="2" />
  <line x1="460" y1="510" x2="450" y2="490" stroke="#212121" stroke-width="2" />
  <line x1="340" y1="510" x2="350" y2="490" stroke="#212121" stroke-width="2" />
  <line x1="290" y1="460" x2="310" y2="450" stroke="#212121" stroke-width="2" />
  <line x1="290" y1="340" x2="310" y2="350" stroke="#212121" stroke-width="2" />
  <line x1="340" y1="290" x2="350" y2="310" stroke="#212121" stroke-width="2" />
  
  <!-- Manecillas del reloj -->
  <line x1="400" y1="400" x2="400" y2="320" stroke="#212121" stroke-width="4" />
  <line x1="400" y1="400" x2="450" y2="400" stroke="#212121" stroke-width="3" />
  <line x1="400" y1="400" x2="380" y2="350" stroke="#f44336" stroke-width="2" />
  
  <!-- Centro de las manecillas -->
  <circle cx="400" cy="400" r="8" fill="#bdbdbd" stroke="#757575" stroke-width="2" />
  
  <!-- Textura de la correa -->
  <pattern id="leather" patternUnits="userSpaceOnUse" width="20" height="20">
    <rect width="20" height="20" fill="#795548" />
    <circle cx="10" cy="10" r="8" fill="#8d6e63" fill-opacity="0.2" />
  </pattern>
  <path d="M300 150 L500 150 L550 300 L550 500 L500 650 L300 650 L250 500 L250 300 Z" fill="url(#leather)" />
  
  <!-- Hebilla -->
  <rect x="380" y="550" width="40" height="20" rx="5" fill="#bdbdbd" stroke="#757575" stroke-width="2" />
  <rect x="390" y="570" width="20" height="30" rx="5" fill="#bdbdbd" stroke="#757575" stroke-width="2" />
  
  <!-- Brillo del cristal -->
  <ellipse cx="370" cy="370" rx="50" ry="30" fill="#ffffff" fill-opacity="0.3" />
</svg>