<svg width="800" height="800" viewBox="0 0 800 800" xmlns="http://www.w3.org/2000/svg">
  <!-- Fondo del producto -->
  <rect width="800" height="800" fill="#f5f5f5" />
  
  <!-- Silueta del suéter -->
  <path d="M400 100 L250 180 L200 300 L200 650 L600 650 L600 300 L550 180 Z" fill="#9e9e9e" stroke="#757575" stroke-width="10" />
  
  <!-- Cuello del suéter -->
  <path d="M350 100 L400 150 L450 100" fill="#757575" stroke="#616161" stroke-width="8" />
  
  <!-- Mangas -->
  <path d="M250 180 L150 280" fill="none" stroke="#757575" stroke-width="10" />
  <path d="M550 180 L650 280" fill="none" stroke="#757575" stroke-width="10" />
  
  <!-- Textura de punto -->
  <!-- Patrón horizontal -->
  <line x1="200" y1="350" x2="600" y2="350" stroke="#757575" stroke-width="3" />
  <line x1="200" y1="380" x2="600" y2="380" stroke="#757575" stroke-width="3" />
  <line x1="200" y1="410" x2="600" y2="410" stroke="#757575" stroke-width="3" />
  <line x1="200" y1="440" x2="600" y2="440" stroke="#757575" stroke-width="3" />
  <line x1="200" y1="470" x2="600" y2="470" stroke="#757575" stroke-width="3" />
  <line x1="200" y1="500" x2="600" y2="500" stroke="#757575" stroke-width="3" />
  <line x1="200" y1="530" x2="600" y2="530" stroke="#757575" stroke-width="3" />
  <line x1="200" y1="560" x2="600" y2="560" stroke="#757575" stroke-width="3" />
  <line x1="200" y1="590" x2="600" y2="590" stroke="#757575" stroke-width="3" />
  <line x1="200" y1="620" x2="600" y2="620" stroke="#757575" stroke-width="3" />
  
  <!-- Patrón de punto en el centro -->
  <path d="M350 250 L450 250 L450 320 L350 320 Z" fill="#757575" />
  <path d="M370 270 L430 270 L430 300 L370 300 Z" fill="#9e9e9e" />
  
  <!-- Puños -->
  <rect x="150" y="250" width="50" height="30" fill="#757575" rx="5" />
  <rect x="600" y="250" width="50" height="30" fill="#757575" rx="5" />
  
  <!-- Textura de punto adicional -->
  <pattern id="knit" patternUnits="userSpaceOnUse" width="10" height="10">
    <rect width="10" height="10" fill="#9e9e9e" />
    <path d="M0 0 L10 10 M10 0 L0 10" stroke="#757575" stroke-width="0.5" />
  </pattern>
  <rect x="200" y="180" width="400" height="470" fill="url(#knit)" fill-opacity="0.1" />
</svg>