<svg width="800" height="800" viewBox="0 0 800 800" xmlns="http://www.w3.org/2000/svg">
  <!-- Fondo del producto -->
  <rect width="800" height="800" fill="#f5f5f5" />
  
  <!-- Silueta del zapato -->
  <path d="M200 400 C 250 350, 350 300, 450 300 C 550 300, 650 350, 650 400 L 650 450 C 650 500, 550 550, 450 550 C 350 550, 250 500, 200 450 Z" fill="#212121" stroke="#000000" stroke-width="10" />
  
  <!-- Suela del zapato -->
  <path d="M200 450 C 250 500, 350 550, 450 550 C 550 550, 650 500, 650 450 L 650 500 C 650 550, 550 600, 450 600 C 350 600, 250 550, 200 500 Z" fill="#424242" stroke="#000000" stroke-width="5" />
  
  <!-- Detalles del zapato -->
  <!-- Costuras -->
  <path d="M300 350 C 350 325, 400 325, 450 350" fill="none" stroke="#616161" stroke-width="3" stroke-dasharray="5,5" />
  <path d="M250 400 C 300 375, 400 375, 450 400" fill="none" stroke="#616161" stroke-width="3" stroke-dasharray="5,5" />
  
  <!-- Cordones -->
  <line x1="350" y1="350" x2="400" y2="350" stroke="#9e9e9e" stroke-width="5" />
  <line x1="350" y1="370" x2="400" y2="370" stroke="#9e9e9e" stroke-width="5" />
  <line x1="350" y1="390" x2="400" y2="390" stroke="#9e9e9e" stroke-width="5" />
  
  <!-- Agujetas -->
  <circle cx="350" cy="350" r="3" fill="#000000" />
  <circle cx="400" cy="350" r="3" fill="#000000" />
  <circle cx="350" cy="370" r="3" fill="#000000" />
  <circle cx="400" cy="370" r="3" fill="#000000" />
  <circle cx="350" cy="390" r="3" fill="#000000" />
  <circle cx="400" cy="390" r="3" fill="#000000" />
  
  <!-- Textura de cuero -->
  <pattern id="leather" patternUnits="userSpaceOnUse" width="20" height="20">
    <rect width="20" height="20" fill="#212121" />
    <circle cx="10" cy="10" r="8" fill="#424242" fill-opacity="0.1" />
  </pattern>
  <path d="M200 400 C 250 350, 350 300, 450 300 C 550 300, 650 350, 650 400 L 650 450 C 650 500, 550 550, 450 550 C 350 550, 250 500, 200 450 Z" fill="url(#leather)" />
  
  <!-- Brillo -->
  <ellipse cx="300" cy="350" rx="50" ry="20" fill="#ffffff" fill-opacity="0.1" />
</svg>